<?xml version="1.0" encoding="UTF-8" standalone="no"?>
<svg width="16px" height="16px" viewBox="0 0 16 16" version="1.1" xmlns="http://www.w3.org/2000/svg" xmlns:xlink="http://www.w3.org/1999/xlink">
    <!-- Generator: Sketch 49.2 (51160) - http://www.bohemiancoding.com/sketch -->
    <title>icon_pic</title>
    <desc>Created with Sketch.</desc>
    <defs></defs>
    <g id="icon_pic" stroke="none" stroke-width="1" fill="none" fill-rule="evenodd">
        <g id="Group-12" fill-rule="nonzero">
            <path d="M2,0.25 L14,0.25 C14.9664983,0.25 15.75,1.03350169 15.75,2 L15.75,14 C15.75,14.9664983 14.9664983,15.75 14,15.75 L2,15.75 C1.03350169,15.75 0.25,14.9664983 0.25,14 L0.25,2 C0.25,1.03350169 1.03350169,0.25 2,0.25 Z" id="Rectangle-6" fill="#262626"></path>
            <path d="M0.533751018,9.11028834 C0.271596255,8.78958948 0.31905562,8.31709327 0.639754475,8.05493851 C0.960453331,7.79278375 1.43294954,7.84024311 1.69510431,8.16094197 C2.76627542,9.47132576 3.91542671,10.0970936 5.17555565,10.0970936 C6.33743914,10.0970936 7.04968788,9.59177593 8.25073765,8.16460779 C8.27449732,8.13637495 8.50732149,7.8586653 8.5765405,7.7767639 C9.81227397,6.31461791 10.6619426,5.69796041 12.0181815,5.69796041 C13.6449424,5.69796041 14.8742118,6.61880321 15.6255923,8.33478674 C15.7917353,8.71421974 15.6188295,9.15649642 15.2393965,9.32263936 C14.8599635,9.48878231 14.4176868,9.31587656 14.2515439,8.93644356 C13.7257085,7.73555411 13.0080534,7.19796041 12.0181815,7.19796041 C11.2423908,7.19796041 10.692197,7.59727037 9.72218653,8.74500725 C9.65527923,8.82417338 9.4239024,9.10015667 9.39841187,9.13044622 C7.9353248,10.8689847 6.90905031,11.5970936 5.17555565,11.5970936 C3.43120659,11.5970936 1.87293922,10.7485425 0.533751018,9.11028834 Z" id="Path-2" fill="#F9CC74"></path>
            <path d="M4.85,7.35 C3.85588745,7.35 3.05,6.54411255 3.05,5.55 C3.05,4.55588745 3.85588745,3.75 4.85,3.75 C5.84411255,3.75 6.65,4.55588745 6.65,5.55 C6.65,6.54411255 5.84411255,7.35 4.85,7.35 Z M4.85,5.85 C5.01568542,5.85 5.15,5.71568542 5.15,5.55 C5.15,5.38431458 5.01568542,5.25 4.85,5.25 C4.68431458,5.25 4.55,5.38431458 4.55,5.55 C4.55,5.71568542 4.68431458,5.85 4.85,5.85 Z" id="Oval" fill="#F9CC74"></path>
        </g>
    </g>
</svg>