<?xml version="1.0" encoding="UTF-8" standalone="no"?>
<svg width="22px" height="22px" viewBox="0 0 22 22" version="1.1" xmlns="http://www.w3.org/2000/svg" xmlns:xlink="http://www.w3.org/1999/xlink">
    <!-- Generator: Sketch 49.2 (51160) - http://www.bohemiancoding.com/sketch -->
    <title>icon_txlt</title>
    <desc>Created with Sketch.</desc>
    <defs></defs>
    <g id="icon_txlt" stroke="none" stroke-width="1" fill="none" fill-rule="evenodd">
        <g id="Group-2" transform="translate(0.000000, 2.000000)">
            <path d="M13.1702025,1.57280099 L21.3216391,14.2514183 C22.0683277,15.412806 21.7321476,16.9596075 20.5707599,17.706296 C20.1674937,17.9655671 19.6981823,18.1034175 19.2187606,18.1034175 L2.91588725,18.1034175 C1.53517538,18.1034175 0.415887254,16.9841294 0.415887254,15.6034175 C0.415887254,15.1239959 0.55373767,14.6546844 0.813008744,14.2514183 L8.96444543,1.57280099 C9.711134,0.411413257 11.2579355,0.075233161 12.4193232,0.821921728 C12.7204991,1.01555614 12.976568,1.27162505 13.1702025,1.57280099 Z" id="Triangle" fill="#24DD93"></path>
            <path d="M10.3946228,13.1643574 L14.90038,8.52059299 C15.1627343,8.20005737 15.63526,8.15289213 15.9557956,8.41524647 C16.2763312,8.6776008 16.3234964,9.15012647 16.0611421,9.47066208 L11.0424216,15.7411477 C10.765715,16.0792185 10.2597703,16.1101778 9.94390855,15.808367 L5.95258847,11.6933881 C5.65310995,11.4072317 5.64231023,10.9324808 5.92846663,10.6330023 C6.21462303,10.3335238 6.68937394,10.3227241 6.98885247,10.6088805 L10.3946228,13.1643574 Z" id="Path-2" fill="#FFFFFF" fill-rule="nonzero"></path>
        </g>
    </g>
</svg>