<?xml version="1.0" encoding="UTF-8" standalone="no"?>
<svg width="24px" height="24px" viewBox="0 0 24 24" version="1.1" xmlns="http://www.w3.org/2000/svg" xmlns:xlink="http://www.w3.org/1999/xlink">
    <!-- Generator: Sketch 49.2 (51160) - http://www.bohemiancoding.com/sketch -->
    <title>icon_tongxunliant</title>
    <desc>Created with Sketch.</desc>
    <defs></defs>
    <g id="icon_tongxunliant" stroke="none" stroke-width="1" fill="none" fill-rule="evenodd">
        <g id="Group" transform="translate(1.000000, 6.000000)" fill="#F9CC74" fill-rule="nonzero">
            <path d="M5.71428571,0.75 C2.97258642,0.75 0.75,2.97258642 0.75,5.71428571 L0.75,6.38571429 C0.75,9.12741358 2.97258642,11.35 5.71428571,11.35 L16.2857143,11.35 C19.0274136,11.35 21.25,9.12741358 21.25,6.38571429 L21.25,5.71428571 C21.25,2.97258642 19.0274136,0.75 16.2857143,0.75 L5.71428571,0.75 Z M5.71428571,-0.75 L16.2857143,-0.75 C19.8558407,-0.75 22.75,2.1441593 22.75,5.71428571 L22.75,6.38571429 C22.75,9.9558407 19.8558407,12.85 16.2857143,12.85 L5.71428571,12.85 C2.1441593,12.85 -0.75,9.9558407 -0.75,6.38571429 L-0.75,5.71428571 C-0.75,2.1441593 2.1441593,-0.75 5.71428571,-0.75 Z" id="Rectangle-2"></path>
            <path d="M4.4,6.8 C3.98578644,6.8 3.65,6.46421356 3.65,6.05 C3.65,5.63578644 3.98578644,5.3 4.4,5.3 L16.5,5.3 C16.9142136,5.3 17.25,5.63578644 17.25,6.05 C17.25,6.46421356 16.9142136,6.8 16.5,6.8 L4.4,6.8 Z" id="Line"></path>
        </g>
    </g>
</svg>