<?xml version="1.0" encoding="UTF-8" standalone="no"?>
<svg width="16px" height="16px" viewBox="0 0 16 16" version="1.1" xmlns="http://www.w3.org/2000/svg" xmlns:xlink="http://www.w3.org/1999/xlink">
    <!-- Generator: Sketch 49.2 (51160) - http://www.bohemiancoding.com/sketch -->
    <title>icon_lsqx</title>
    <desc>Created with Sketch.</desc>
    <defs></defs>
    <g id="icon_lsqx" stroke="none" stroke-width="1" fill="none" fill-rule="evenodd">
        <g id="Group-5" transform="translate(1.000000, 2.000000)" fill="#F9CC74" fill-rule="nonzero">
            <path d="M1,0.5 C0.723857625,0.5 0.5,0.723857625 0.5,1 L0.5,9 C0.5,9.27614237 0.723857625,9.5 1,9.5 L13,9.5 C13.2761424,9.5 13.5,9.27614237 13.5,9 L13.5,1 C13.5,0.723857625 13.2761424,0.5 13,0.5 L1,0.5 Z M1,-0.5 L13,-0.5 C13.8284271,-0.5 14.5,0.171572875 14.5,1 L14.5,9 C14.5,9.82842712 13.8284271,10.5 13,10.5 L1,10.5 C0.171572875,10.5 -0.5,9.82842712 -0.5,9 L-0.5,1 C-0.5,0.171572875 0.171572875,-0.5 1,-0.5 Z" id="Rectangle-4"></path>
            <path d="M3,12.5 C2.72385763,12.5 2.5,12.2761424 2.5,12 C2.5,11.7238576 2.72385763,11.5 3,11.5 L11,11.5 C11.2761424,11.5 11.5,11.7238576 11.5,12 C11.5,12.2761424 11.2761424,12.5 11,12.5 L3,12.5 Z" id="Line"></path>
            <path d="M4.69855635,4.72836627 L2.35908934,7.44862947 C2.17903187,7.65799498 1.86334216,7.68175384 1.65397665,7.50169637 C1.44461114,7.3216389 1.42085227,7.0059492 1.60090975,6.79658368 L4.24484401,3.72229494 C4.41625941,3.52297819 4.71274594,3.49044436 4.92330454,3.64784665 L8.19172686,6.09114347 L11.5865533,2.10144739 C11.7655062,1.89113694 12.0810665,1.86571658 12.2913769,2.04466944 C12.5016874,2.22362229 12.5271077,2.53918255 12.3481549,2.749493 L8.64912838,7.09669352 C8.47810727,7.29768237 8.18032789,7.3311515 7.96895689,7.1731419 L4.69855635,4.72836627 Z" id="Path-2"></path>
        </g>
    </g>
</svg>