<?xml version="1.0" encoding="UTF-8" standalone="no"?>
<svg width="22px" height="22px" viewBox="0 0 22 22" version="1.1" xmlns="http://www.w3.org/2000/svg" xmlns:xlink="http://www.w3.org/1999/xlink">
    <!-- Generator: Sketch 49.2 (51160) - http://www.bohemiancoding.com/sketch -->
    <title>icon_scpic</title>
    <desc>Created with Sketch.</desc>
    <defs></defs>
    <g id="icon_scpic" stroke="none" stroke-width="1" fill="none" fill-rule="evenodd">
        <g id="Group-12" transform="translate(1.000000, 1.000000)" fill="#999999" fill-rule="nonzero">
            <path d="M2,0.75 C1.30964406,0.75 0.75,1.30964406 0.75,2 L0.75,18 C0.75,18.6903559 1.30964406,19.25 2,19.25 L18,19.25 C18.6903559,19.25 19.25,18.6903559 19.25,18 L19.25,2 C19.25,1.30964406 18.6903559,0.75 18,0.75 L2,0.75 Z M2,-0.75 L18,-0.75 C19.5187831,-0.75 20.75,0.481216938 20.75,2 L20.75,18 C20.75,19.5187831 19.5187831,20.75 18,20.75 L2,20.75 C0.481216938,20.75 -0.75,19.5187831 -0.75,18 L-0.75,2 C-0.75,0.481216938 0.481216938,-0.75 2,-0.75 Z" id="Rectangle-6"></path>
            <path d="M-0.417208556,11.3826948 L0.744144734,10.4333485 C2.33182142,12.3755832 4.06113385,13.3172766 5.9650795,13.3172766 C7.74740117,13.3172766 8.8321906,12.5476532 10.6041268,10.4421194 C10.6384401,10.401346 10.9707359,10.0049879 11.0691249,9.88857201 C12.7775177,7.8671654 13.9271569,7.03280058 15.7402592,7.03280058 C17.9277273,7.03280058 19.5741947,8.26616549 20.5992644,10.6071932 L19.2252159,11.2088501 C18.4256914,9.38291639 17.2908383,8.53280058 15.7402592,8.53280058 C14.5076051,8.53280058 13.6574407,9.14981786 12.2147709,10.8568154 C12.1186937,10.970496 11.7878452,11.3651277 11.7518011,11.4079578 C9.71782752,13.824862 8.31901234,14.8172766 5.9650795,14.8172766 C3.57691373,14.8172766 1.43848522,13.6528 -0.417208556,11.3826948 Z" id="Path-2"></path>
            <path d="M5.5,8.75 C4.25735931,8.75 3.25,7.74264069 3.25,6.5 C3.25,5.25735931 4.25735931,4.25 5.5,4.25 C6.74264069,4.25 7.75,5.25735931 7.75,6.5 C7.75,7.74264069 6.74264069,8.75 5.5,8.75 Z M5.5,7.25 C5.91421356,7.25 6.25,6.91421356 6.25,6.5 C6.25,6.08578644 5.91421356,5.75 5.5,5.75 C5.08578644,5.75 4.75,6.08578644 4.75,6.5 C4.75,6.91421356 5.08578644,7.25 5.5,7.25 Z" id="Oval"></path>
        </g>
    </g>
</svg>