<?xml version="1.0" encoding="UTF-8" standalone="no"?>
<svg width="16px" height="16px" viewBox="0 0 16 16" version="1.1" xmlns="http://www.w3.org/2000/svg" xmlns:xlink="http://www.w3.org/1999/xlink">
    <!-- Generator: Sketch 49.2 (51160) - http://www.bohemiancoding.com/sketch -->
    <title>icon_tjfenx</title>
    <desc>Created with Sketch.</desc>
    <defs>
        <circle id="path-1" cx="8" cy="8" r="8"></circle>
    </defs>
    <g id="icon_tjfenx" stroke="none" stroke-width="1" fill="none" fill-rule="evenodd">
        <g id="Group">
            <mask id="mask-2" fill="white">
                <use xlink:href="#path-1"></use>
            </mask>
            <use id="Mask" fill="#262626" xlink:href="#path-1"></use>
        </g>
        <g id="Group-2" transform="translate(3.500000, 3.500000)" fill="#F9CC74" fill-rule="nonzero">
            <path d="M4,7.5 C2.06700338,7.5 0.5,5.93299662 0.5,4 C0.5,2.06700338 2.06700338,0.5 4,0.5 C5.93299662,0.5 7.5,2.06700338 7.5,4 C7.5,5.93299662 5.93299662,7.5 4,7.5 Z M4,6.5 C5.38071187,6.5 6.5,5.38071187 6.5,4 C6.5,2.61928813 5.38071187,1.5 4,1.5 C2.61928813,1.5 1.5,2.61928813 1.5,4 C1.5,5.38071187 2.61928813,6.5 4,6.5 Z" id="Oval-7"></path>
            <path d="M6.64644661,7.35355339 C6.45118446,7.15829124 6.45118446,6.84170876 6.64644661,6.64644661 C6.84170876,6.45118446 7.15829124,6.45118446 7.35355339,6.64644661 L8.76776695,8.06066017 C8.9630291,8.25592232 8.9630291,8.57250481 8.76776695,8.76776695 C8.57250481,8.9630291 8.25592232,8.9630291 8.06066017,8.76776695 L6.64644661,7.35355339 Z" id="Line"></path>
        </g>
    </g>
</svg>