<?xml version="1.0" encoding="UTF-8" standalone="no"?>
<svg width="36px" height="36px" viewBox="0 0 36 36" version="1.1" xmlns="http://www.w3.org/2000/svg" xmlns:xlink="http://www.w3.org/1999/xlink">
    <!-- Generator: Sketch 49.2 (51160) - http://www.bohemiancoding.com/sketch -->
    <title>icon_dingwei</title>
    <desc>Created with Sketch.</desc>
    <defs></defs>
    <g id="icon_dingwei" stroke="none" stroke-width="1" fill="none" fill-rule="evenodd">
        <g id="Group-12">
            <rect id="Rectangle-6" fill="#FFFFFF" x="0" y="0" width="36" height="36" rx="4"></rect>
            <path d="M18,27.75 C12.6152237,27.75 8.25,23.3847763 8.25,18 C8.25,12.6152237 12.6152237,8.25 18,8.25 C23.3847763,8.25 27.75,12.6152237 27.75,18 C27.75,23.3847763 23.3847763,27.75 18,27.75 Z M18,26.25 C22.5563492,26.25 26.25,22.5563492 26.25,18 C26.25,13.4436508 22.5563492,9.75 18,9.75 C13.4436508,9.75 9.75,13.4436508 9.75,18 C9.75,22.5563492 13.4436508,26.25 18,26.25 Z" id="Oval-4" fill="#333333" fill-rule="nonzero"></path>
            <circle id="Oval-5" fill="#333333" cx="18" cy="18" r="4"></circle>
        </g>
    </g>
</svg>