<?xml version="1.0" encoding="UTF-8" standalone="no"?>
<svg width="16px" height="16px" viewBox="0 0 16 16" version="1.1" xmlns="http://www.w3.org/2000/svg" xmlns:xlink="http://www.w3.org/1999/xlink">
    <!-- Generator: Sketch 49.2 (51160) - http://www.bohemiancoding.com/sketch -->
    <title>icon_xinzengzhand</title>
    <desc>Created with Sketch.</desc>
    <defs></defs>
    <g id="icon_xinzengzhand" stroke="none" stroke-width="1" fill="none" fill-rule="evenodd">
        <circle id="Oval" fill="#262626" cx="8" cy="8" r="8"></circle>
        <g id="Group" transform="translate(4.000000, 4.000000)" fill="#F9CC74" fill-rule="nonzero">
            <path d="M6.11599998,5.14285714 L6.11599998,4.66800003 L1.88400002,4.66800003 L1.88400002,5.14285714 L2.35714286,5.14285714 C2.63328523,5.14285714 2.85714286,5.36671477 2.85714286,5.64285714 L2.85714286,7.5 C2.85714286,7.77614237 2.63328523,8 2.35714286,8 L0.5,8 C0.223857625,8 2.79081386e-16,7.77614237 0,7.5 L0,5.64285714 C-3.38176876e-17,5.36671477 0.223857625,5.14285714 0.5,5.14285714 L0.884000015,5.14285714 L0.884000015,4.45371432 C0.884000015,4.02913708 1.2146571,3.66800003 1.64560001,3.66800003 L3.5,3.66800003 L3.5,2.85714286 L3.07142857,2.85714286 C2.7952862,2.85714286 2.57142857,2.63328523 2.57142857,2.35714286 L2.57142857,0.5 C2.57142857,0.223857625 2.7952862,5.07265313e-17 3.07142857,0 L4.92857143,0 C5.2047138,1.94537167e-16 5.42857143,0.223857625 5.42857143,0.5 L5.42857143,2.35714286 C5.42857143,2.63328523 5.2047138,2.85714286 4.92857143,2.85714286 L4.5,2.85714286 L4.5,3.66800003 L6.35439999,3.66800003 C6.7853429,3.66800003 7.11599998,4.02913708 7.11599998,4.45371432 L7.11599998,5.14285714 L7.5,5.14285714 C7.77614237,5.14285714 8,5.36671477 8,5.64285714 L8,7.5 C8,7.77614237 7.77614237,8 7.5,8 L5.64285714,8 C5.36671477,8 5.14285714,7.77614237 5.14285714,7.5 L5.14285714,5.64285714 C5.14285714,5.36671477 5.36671477,5.14285714 5.64285714,5.14285714 L6.11599998,5.14285714 Z" id="Combined-Shape"></path>
        </g>
    </g>
</svg>