<?xml version="1.0" encoding="UTF-8" standalone="no"?>
<svg width="16px" height="16px" viewBox="0 0 16 16" version="1.1" xmlns="http://www.w3.org/2000/svg" xmlns:xlink="http://www.w3.org/1999/xlink">
    <!-- Generator: Sketch 49.2 (51160) - http://www.bohemiancoding.com/sketch -->
    <title>icon_delete</title>
    <desc>Created with Sketch.</desc>
    <defs></defs>
    <g id="icon_delete" stroke="none" stroke-width="1" fill="none" fill-rule="evenodd">
        <g id="Group" transform="translate(1.500000, 1.500000)" fill-rule="nonzero">
            <path d="M10.3333333,4.33333333 C10.3333333,4.05719096 10.557191,3.83333333 10.8333333,3.83333333 C11.1094757,3.83333333 11.3333333,4.05719096 11.3333333,4.33333333 L11.3333333,11 C11.3333333,12.3807119 10.2140452,13.5 8.83333333,13.5 L4.16666667,13.5 C2.78595479,13.5 1.66666667,12.3807119 1.66666667,11 L1.66666667,4.33333333 C1.66666667,4.05719096 1.89052429,3.83333333 2.16666667,3.83333333 C2.44280904,3.83333333 2.66666667,4.05719096 2.66666667,4.33333333 L2.66666667,11 C2.66666667,11.8284271 3.33823954,12.5 4.16666667,12.5 L8.83333333,12.5 C9.66176046,12.5 10.3333333,11.8284271 10.3333333,11 L10.3333333,4.33333333 Z" id="Rectangle" fill="#333333"></path>
            <path d="M4.375,6.5 C4.375,6.22385763 4.59885763,6 4.875,6 C5.15114237,6 5.375,6.22385763 5.375,6.5 L5.375,10.8333333 C5.375,11.1094757 5.15114237,11.3333333 4.875,11.3333333 C4.59885763,11.3333333 4.375,11.1094757 4.375,10.8333333 L4.375,6.5 Z" id="Line-2" fill="#F9CC74"></path>
            <path d="M7.625,6.5 C7.625,6.22385763 7.84885763,6 8.125,6 C8.40114237,6 8.625,6.22385763 8.625,6.5 L8.625,10.8333333 C8.625,11.1094757 8.40114237,11.3333333 8.125,11.3333333 C7.84885763,11.3333333 7.625,11.1094757 7.625,10.8333333 L7.625,6.5 Z" id="Line-2-Copy" fill="#F9CC74"></path>
            <path d="M0,2.66666667 C-0.276142375,2.66666667 -0.5,2.44280904 -0.5,2.16666667 C-0.5,1.89052429 -0.276142375,1.66666667 0,1.66666667 L13,1.66666667 C13.2761424,1.66666667 13.5,1.89052429 13.5,2.16666667 C13.5,2.44280904 13.2761424,2.66666667 13,2.66666667 L0,2.66666667 Z" id="Line" fill="#333333"></path>
            <path d="M7.41251294,0.776393202 C7.32781693,0.607001188 7.15468537,0.5 6.96529934,0.5 L6.03470066,0.5 C5.84531463,0.5 5.67218307,0.607001188 5.58748706,0.776393202 L5.14235033,1.66666667 L7.85764967,1.66666667 L7.41251294,0.776393202 Z M6.03470066,-0.5 L6.96529934,-0.5 C7.53345743,-0.5 8.05285211,-0.178996436 8.30694013,0.329179607 L9.11388026,1.94305987 C9.28010554,2.27551042 9.03835768,2.66666667 8.66666667,2.66666667 L4.33333333,2.66666667 C3.96164232,2.66666667 3.71989446,2.27551042 3.88611974,1.94305987 L4.69305987,0.329179607 C4.94714789,-0.178996436 5.46654257,-0.5 6.03470066,-0.5 Z" id="Rectangle-9" fill="#333333"></path>
        </g>
    </g>
</svg>