<?xml version="1.0" encoding="UTF-8" standalone="no"?>
<svg width="24px" height="24px" viewBox="0 0 24 24" version="1.1" xmlns="http://www.w3.org/2000/svg" xmlns:xlink="http://www.w3.org/1999/xlink">
    <!-- Generator: Sketch 49.2 (51160) - http://www.bohemiancoding.com/sketch -->
    <title>icon_dianya</title>
    <desc>Created with Sketch.</desc>
    <defs></defs>
    <g id="icon_dianya" stroke="none" stroke-width="1" fill="none" fill-rule="evenodd">
        <path d="M9.87421204,2.75 L7.00019923,12.5967525 L12.0078569,12.5967525 C12.4795232,12.5967525 12.8341128,13.0269553 12.7440605,13.4899453 L11.7754495,18.4699091 L17.2940457,10.1866574 L13.1138494,10.1866574 C12.5547592,10.1866574 12.1922265,9.5969479 12.4446257,9.09807265 L15.6563473,2.75 L9.87421204,2.75 Z M11.0979257,14.0967525 L6,14.0967525 C5.49994024,14.0967525 5.13993164,13.6166454 5.28004017,13.1366148 L8.59186426,1.78986232 C8.6852439,1.46993116 8.97854387,1.25 9.31182408,1.25 L16.8763258,1.25 C17.435416,1.25 17.7979487,1.83970946 17.5455495,2.33858471 L14.3338279,8.68665736 L18.6949307,8.68665736 C19.2938508,8.68665736 19.6511649,9.35406533 19.3190926,9.85249616 L10.9489481,22.4158388 C10.494594,23.097811 9.43212709,22.6611985 9.5885825,21.8568072 L11.0979257,14.0967525 Z" id="Rectangle-6" fill="#F9CC74" fill-rule="nonzero"></path>
    </g>
</svg>