<?xml version="1.0" encoding="UTF-8" standalone="no"?>
<svg width="22px" height="22px" viewBox="0 0 22 22" version="1.1" xmlns="http://www.w3.org/2000/svg" xmlns:xlink="http://www.w3.org/1999/xlink">
    <!-- Generator: Sketch 49.2 (51160) - http://www.bohemiancoding.com/sketch -->
    <title>icon_tianjia</title>
    <desc>Created with Sketch.</desc>
    <defs></defs>
    <g id="icon_tianjia" stroke="none" stroke-width="1" fill="none" fill-rule="evenodd">
        <g id="Group-4" transform="translate(1.000000, 1.000000)" fill="#262626">
            <circle id="Oval" cx="10" cy="10" r="10"></circle>
        </g>
        <g id="Group" transform="translate(11.000000, 11.000000) rotate(45.000000) translate(-11.000000, -11.000000) translate(5.500000, 5.500000)" fill="#F9CC74" fill-rule="nonzero">
            <path d="M4.75,2.93098879e-14 C4.75,-0.414213562 5.08578644,-0.75 5.5,-0.75 C5.91421356,-0.75 6.25,-0.414213562 6.25,2.93098879e-14 L6.25,11 C6.25,11.4142136 5.91421356,11.75 5.5,11.75 C5.08578644,11.75 4.75,11.4142136 4.75,11 L4.75,2.93098879e-14 Z" id="Line" transform="translate(5.500000, 5.500000) rotate(-45.000000) translate(-5.500000, -5.500000) "></path>
            <path d="M8.85875721,1.08058262 C9.15165043,0.787689399 9.62652416,0.787689399 9.91941738,1.08058262 C10.2123106,1.37347584 10.2123106,1.84834957 9.91941738,2.14124279 L2.14124279,9.91941738 C1.84834957,10.2123106 1.37347584,10.2123106 1.08058262,9.91941738 C0.787689399,9.62652416 0.787689399,9.15165043 1.08058262,8.85875721 L8.85875721,1.08058262 Z" id="Line"></path>
        </g>
    </g>
</svg>