<?xml version="1.0" encoding="UTF-8" standalone="no"?>
<svg width="32px" height="32px" viewBox="0 0 32 32" version="1.1" xmlns="http://www.w3.org/2000/svg" xmlns:xlink="http://www.w3.org/1999/xlink">
    <!-- Generator: Sketch 49.2 (51160) - http://www.bohemiancoding.com/sketch -->
    <title>icon_默认头像</title>
    <desc>Created with Sketch.</desc>
    <defs>
        <circle id="path-1" cx="16" cy="16" r="16"></circle>
        <path d="M13.1459555,2.37806966 C11.4535685,2.37806966 10.1607238,1.70572936 9.26742149,0.36104877 L0.829137025,4.11187878 L10.7216973,10.4294006 L25.462774,8.22911773 L24.7874301,3.79273909 L17.0321912,0.489378546 C16.1337544,1.74850595 14.8383425,2.37806966 13.1459555,2.37806966 Z" id="path-3"></path>
    </defs>
    <g id="icon_默认头像" stroke="none" stroke-width="1" fill="none" fill-rule="evenodd">
        <g id="Group-13">
            <mask id="mask-2" fill="white">
                <use xlink:href="#path-1"></use>
            </mask>
            <use id="Mask" fill="#666666" xlink:href="#path-1"></use>
            <g id="Group-11" mask="url(#mask-2)">
                <g transform="translate(3.000000, 2.900002)">
                    <g id="Group-14" stroke-width="1" fill="none" transform="translate(9.000000, 14.000000)">
                        <rect id="Rectangle-8" fill="#F7C8B6" x="0.285714286" y="3.64285714" width="7.63468566" height="6.5"></rect>
                        <rect id="Rectangle-8" fill="#F3BAAB" x="0.285714286" y="0.642857143" width="7.63468566" height="6.5" rx="3.25"></rect>
                    </g>
                    <g id="Group-10" stroke-width="1" fill="none" transform="translate(0.000000, 20.428571)">
                        <mask id="mask-4" fill="white">
                            <use xlink:href="#path-3"></use>
                        </mask>
                        <use id="Mask" fill="#424242" xlink:href="#path-3"></use>
                        <polygon id="Path-6" fill="#333333" mask="url(#mask-4)" points="5.99230445 1.8409724 2.37495825 6.69744179 11.487757 9.90095624 19.5341013 8.23782106 19.7549038 7.08952935 14.5157364 0.637134134 8.04110277 -0.969663792"></polygon>
                    </g>
                    <path d="M6.55892678,9.90854447 C6.17051244,9.80406483 5.58086325,9.87780216 5.44644425,10.742863 C5.26499211,11.9106081 6.20969231,14.7888023 7.52905147,14.9925983 C8.40862425,15.1284624 8.36522445,13.677388 7.39885208,10.6393752 C7.08268352,10.2177296 6.80270842,9.97411933 6.55892678,9.90854447 Z" id="Path-4" fill="#F1C9BD"></path>
                    <path d="M18.7776768,10.2508682 C18.3892625,10.1463885 17.7996133,10.2201258 17.6651943,11.0851867 C17.4837422,12.2529318 18.4284424,15.131126 19.7478015,15.334922 C20.6273743,15.4707861 20.5839745,14.0197117 19.6176021,10.9816988 C19.3014336,10.5600532 19.0214585,10.316443 18.7776768,10.2508682 Z" id="Path-4" fill="#F1C9BD" transform="translate(19.009659, 12.778966) scale(-1, 1) translate(-19.009659, -12.778966) "></path>
                    <path d="M13.1857256,19.7785707 C16.5191586,19.7785707 19.2214399,16.2448182 19.2214399,11.8857136 C19.2214399,11.5547084 19.2058585,11.2284621 19.1756026,10.9081607 C19.5236201,6.04319442 16.2660369,3.99285643 13.1857256,3.99285643 C10.1224199,3.99285643 6.16321017,4.90079219 7.20214514,10.8436848 C7.16775665,11.184647 7.15001134,11.5324703 7.15001134,11.8857136 C7.15001134,16.2448182 9.85229267,19.7785707 13.1857256,19.7785707 Z" id="Oval-2" fill="#F5DDCA"></path>
                    <path d="M9.46620203,5.44205032 C7.60905317,6.4940941 6.8591459,8.3158633 7.21648024,10.9073579 C5.66993599,8.73693067 5.02218299,2.59157724 9.87159594,1.18238781 C13.1045379,0.242928185 12.9694066,1.66281569 9.46620203,5.44205032 Z" id="Path-3" fill="#262626"></path>
                    <path d="M9.23077805,1.89781145 C8.94431082,2.34034413 8.15773336,5.35236951 11.1963694,6.99626527 C14.2350055,8.64016102 17.8891909,7.54334665 18.2963058,6.99626527 C18.7960373,7.96788635 19.1591061,9.71878745 19.1591061,11.0019712 C20.1738157,9.38070877 20.3758212,5.55313332 19.859612,4.78985204 C20.4955219,4.05630652 20.7536738,3.18317334 20.46929,2.34034413 C20.46929,2.34034413 19.7595142,2.81914688 18.3936574,2.50654248 C17.0278005,2.19393807 16.7464021,0.131151774 13.7234365,0.0372422952 C10.4860254,-0.0633290105 9.61899189,1.29810128 9.23077805,1.89781145 Z" id="Path-2" fill="#444444"></path>
                </g>
            </g>
        </g>
    </g>
</svg>