<?xml version="1.0" encoding="UTF-8" standalone="no"?>
<svg width="22px" height="22px" viewBox="0 0 22 22" version="1.1" xmlns="http://www.w3.org/2000/svg" xmlns:xlink="http://www.w3.org/1999/xlink">
    <!-- Generator: Sketch 49.2 (51160) - http://www.bohemiancoding.com/sketch -->
    <title>icon_txsb</title>
    <desc>Created with Sketch.</desc>
    <defs></defs>
    <g id="icon_txsb" stroke="none" stroke-width="1" fill="none" fill-rule="evenodd">
        <g id="Group-2" transform="translate(0.000000, 2.000000)">
            <path d="M13.1702025,1.57280099 L21.3216391,14.2514183 C22.0683277,15.412806 21.7321476,16.9596075 20.5707599,17.706296 C20.1674937,17.9655671 19.6981823,18.1034175 19.2187606,18.1034175 L2.91588725,18.1034175 C1.53517538,18.1034175 0.415887254,16.9841294 0.415887254,15.6034175 C0.415887254,15.1239959 0.55373767,14.6546844 0.813008744,14.2514183 L8.96444543,1.57280099 C9.711134,0.411413257 11.2579355,0.075233161 12.4193232,0.821921728 C12.7204991,1.01555614 12.976568,1.27162505 13.1702025,1.57280099 Z" id="Triangle" fill="#FF4E48"></path>
            <path d="M11,5 L11,5 C11.957988,5 12.7345908,5.77660276 12.7345908,6.7345908 C12.7345908,6.81666968 12.728765,6.89864505 12.7171573,6.97989899 L12.1414214,11.0100505 C12.0602744,11.5780793 11.5737957,12 11,12 L11,12 C10.4262043,12 9.93972561,11.5780793 9.85857864,11.0100505 L9.28284271,6.97989899 C9.14736274,6.0315392 9.80633203,5.15291348 10.7546918,5.01743352 C10.8359458,5.00582581 10.9179211,5 11,5 Z" id="Rectangle-2" fill="#FFFFFF"></path>
            <circle id="Oval" fill="#FFFFFF" cx="11" cy="14.5" r="1.5"></circle>
        </g>
    </g>
</svg>