<?xml version="1.0" encoding="UTF-8" standalone="no"?>
<svg width="24px" height="24px" viewBox="0 0 24 24" version="1.1" xmlns="http://www.w3.org/2000/svg" xmlns:xlink="http://www.w3.org/1999/xlink">
    <!-- Generator: Sketch 49.2 (51160) - http://www.bohemiancoding.com/sketch -->
    <title>icon_mm</title>
    <desc>Created with Sketch.</desc>
    <defs></defs>
    <g id="icon_mm" stroke="none" stroke-width="1" fill="none" fill-rule="evenodd">
        <g id="Group-4" transform="translate(2.500000, 0.500000)" fill="#262626">
            <path d="M3,11.3125 C2.30964406,11.3125 1.75,11.8721441 1.75,12.5625 L1.75,20.25 C1.75,20.9403559 2.30964406,21.5 3,21.5 L16,21.5 C16.6903559,21.5 17.25,20.9403559 17.25,20.25 L17.25,12.5625 C17.25,11.8721441 16.6903559,11.3125 16,11.3125 L3,11.3125 Z M3,9.8125 L16,9.8125 C17.5187831,9.8125 18.75,11.0437169 18.75,12.5625 L18.75,20.25 C18.75,21.7687831 17.5187831,23 16,23 L3,23 C1.48121694,23 0.25,21.7687831 0.25,20.25 L0.25,12.5625 C0.25,11.0437169 1.48121694,9.8125 3,9.8125 Z" id="Rectangle-4" fill-rule="nonzero"></path>
            <g id="Group-3" transform="translate(7.375000, 13.218750)">
                <circle id="Oval" cx="2.125" cy="1.59375" r="1.59375"></circle>
                <path d="M1.375,1.59375 C1.375,1.17953644 1.71078644,0.84375 2.125,0.84375 C2.53921356,0.84375 2.875,1.17953644 2.875,1.59375 L2.875,5.3125 C2.875,5.72671356 2.53921356,6.0625 2.125,6.0625 C1.71078644,6.0625 1.375,5.72671356 1.375,5.3125 L1.375,1.59375 Z" id="Line" fill-rule="nonzero"></path>
            </g>
            <path d="M3.875,10.5625 C3.875,10.9767136 3.53921356,11.3125 3.125,11.3125 C2.71078644,11.3125 2.375,10.9767136 2.375,10.5625 L2.375,7.375 C2.375,3.43997116 5.56497116,0.25 9.5,0.25 C13.4350288,0.25 16.625,3.43997116 16.625,7.375 C16.625,7.78921356 16.2892136,8.125 15.875,8.125 C15.4607864,8.125 15.125,7.78921356 15.125,7.375 C15.125,4.26839828 12.6066017,1.75 9.5,1.75 C6.39339828,1.75 3.875,4.26839828 3.875,7.375 L3.875,10.5625 Z" id="Rectangle-5" fill-rule="nonzero"></path>
        </g>
    </g>
</svg>