<?xml version="1.0" encoding="UTF-8" standalone="no"?>
<svg width="40px" height="40px" viewBox="0 0 40 40" version="1.1" xmlns="http://www.w3.org/2000/svg" xmlns:xlink="http://www.w3.org/1999/xlink">
    <!-- Generator: Sketch 49.2 (51160) - http://www.bohemiancoding.com/sketch -->
    <title>icon_xunjian1</title>
    <desc>Created with Sketch.</desc>
    <defs></defs>
    <g id="icon_xunjian1" stroke="none" stroke-width="1" fill="none" fill-rule="evenodd">
        <g id="icon_项目" fill-rule="nonzero">
            <g id="Group-2" transform="translate(5.714286, 4.285714)">
                <path d="M10.0251526,28.5 C10.8535797,28.5 11.5251526,29.1715729 11.5251526,30 C11.5251526,30.8284271 10.8535797,31.5 10.0251526,31.5 L2.85714286,31.5 C0.450759304,31.5 -1.5,29.5492407 -1.5,27.1428571 L-1.5,2.85714286 C-1.5,0.450759304 0.450759304,-1.5 2.85714286,-1.5 L25.7142857,-1.5 C28.1206693,-1.5 30.0714286,0.450759304 30.0714286,2.85714286 L30.0714286,9.99146776 C30.0714286,10.8198949 29.3998557,11.4914678 28.5714286,11.4914678 C27.7430014,11.4914678 27.0714286,10.8198949 27.0714286,9.99146776 L27.0714286,2.85714286 C27.0714286,2.10761355 26.463815,1.5 25.7142857,1.5 L2.85714286,1.5 C2.10761355,1.5 1.5,2.10761355 1.5,2.85714286 L1.5,27.1428571 C1.5,27.8923864 2.10761355,28.5 2.85714286,28.5 L10.0251526,28.5 Z" id="Rectangle" fill="#666666"></path>
                <path d="M17.8571429,28.6428571 C12.6893356,28.6428571 8.5,24.4535216 8.5,19.2857143 C8.5,14.117907 12.6893356,9.92857143 17.8571429,9.92857143 C23.0249502,9.92857143 27.2142857,14.117907 27.2142857,19.2857143 C27.2142857,24.4535216 23.0249502,28.6428571 17.8571429,28.6428571 Z M17.8571429,25.6428571 C21.3680959,25.6428571 24.2142857,22.7966673 24.2142857,19.2857143 C24.2142857,15.7747612 21.3680959,12.9285714 17.8571429,12.9285714 C14.3461898,12.9285714 11.5,15.7747612 11.5,19.2857143 C11.5,22.7966673 14.3461898,25.6428571 17.8571429,25.6428571 Z" id="Oval" fill="#666666"></path>
                <g id="Group" transform="translate(25.000000, 26.428571)" fill="#F9CC74">
                    <path d="M-0.346374457,1.77494589 C-0.932160895,1.18915945 -0.932160895,0.23941198 -0.346374457,-0.346374457 C0.23941198,-0.932160895 1.18915945,-0.932160895 1.77494589,-0.346374457 L4.80540352,2.68408318 C5.39118996,3.26986961 5.39118996,4.21961708 4.80540352,4.80540352 C4.21961708,5.39118996 3.26986961,5.39118996 2.68408318,4.80540352 L-0.346374457,1.77494589 Z" id="Line"></path>
                </g>
                <path d="M5,7.92857143 C4.17157288,7.92857143 3.5,7.25699855 3.5,6.42857143 C3.5,5.6001443 4.17157288,4.92857143 5,4.92857143 L17.8571429,4.92857143 C18.68557,4.92857143 19.3571429,5.6001443 19.3571429,6.42857143 C19.3571429,7.25699855 18.68557,7.92857143 17.8571429,7.92857143 L5,7.92857143 Z" id="Line-2" fill="#666666"></path>
            </g>
        </g>
    </g>
</svg>