<?xml version="1.0" encoding="UTF-8" standalone="no"?>
<svg width="24px" height="24px" viewBox="0 0 24 24" version="1.1" xmlns="http://www.w3.org/2000/svg" xmlns:xlink="http://www.w3.org/1999/xlink">
    <!-- Generator: Sketch 49.2 (51160) - http://www.bohemiancoding.com/sketch -->
    <title>icon_zh</title>
    <desc>Created with Sketch.</desc>
    <defs></defs>
    <g id="icon_zh" stroke="none" stroke-width="1" fill="none" fill-rule="evenodd">
        <g id="Group-2" transform="translate(3.000000, 2.000000)" fill="#262626" fill-rule="nonzero">
            <path d="M9,11.55 C5.60344879,11.55 2.85,8.79655121 2.85,5.4 C2.85,2.00344879 5.60344879,-0.75 9,-0.75 C12.3965512,-0.75 15.15,2.00344879 15.15,5.4 C15.15,8.79655121 12.3965512,11.55 9,11.55 Z M9,10.05 C11.5681241,10.05 13.65,7.96812409 13.65,5.4 C13.65,2.83187591 11.5681241,0.75 9,0.75 C6.43187591,0.75 4.35,2.83187591 4.35,5.4 C4.35,7.96812409 6.43187591,10.05 9,10.05 Z" id="Oval"></path>
            <path d="M18.75,19.8 C18.75,20.2142136 18.4142136,20.55 18,20.55 C17.5857864,20.55 17.25,20.2142136 17.25,19.8 C17.25,15.2436508 13.5563492,11.55 9,11.55 C7.75319692,11.55 6.54715016,11.8262784 5.44786064,12.3515544 C5.07412208,12.5301387 4.6263759,12.371935 4.44779156,11.9981964 C4.26920722,11.6244579 4.42741096,11.1767117 4.80114952,10.9981273 C6.10131639,10.3768656 7.52819345,10.05 9,10.05 C14.3847763,10.05 18.75,14.4152237 18.75,19.8 Z" id="Oval-2"></path>
            <path d="M1.95298023,13.0618781 C2.23927697,12.7625337 2.71403289,12.7519565 3.01337727,13.0382532 C3.31272165,13.32455 3.32329885,13.7993059 3.03700212,14.0986503 C1.57800606,15.6241384 0.75,17.6460128 0.75,19.8 C0.75,20.2142136 0.414213562,20.55 0,20.55 C-0.414213562,20.55 -0.75,20.2142136 -0.75,19.8 C-0.75,17.2558565 0.229608314,14.8637907 1.95298023,13.0618781 Z" id="Path"></path>
        </g>
    </g>
</svg>