<?xml version="1.0" encoding="UTF-8" standalone="no"?>
<svg width="40px" height="40px" viewBox="0 0 40 40" version="1.1" xmlns="http://www.w3.org/2000/svg" xmlns:xlink="http://www.w3.org/1999/xlink">
    <!-- Generator: Sketch 49.2 (51160) - http://www.bohemiancoding.com/sketch -->
    <title>icon_ziliao2</title>
    <desc>Created with Sketch.</desc>
    <defs></defs>
    <g id="icon_ziliao2" stroke="none" stroke-width="1" fill="none" fill-rule="evenodd">
        <g id="icon_项目" transform="translate(0.000000, -6.000000)" fill="#F9CC74" fill-rule="nonzero">
            <g id="Group-2" transform="translate(1.142857, 0.142857)">
                <path d="M26.8148921,22.3746014 C26.5497245,21.5897589 26.9710043,20.7385576 27.7558467,20.47339 L28.576223,20.196217 C29.8842937,19.754271 31.3029626,20.4564039 31.7449085,21.7644746 C31.9202797,22.283538 31.9202797,22.8458391 31.7449085,23.3649025 L26.6475663,38.4520056 C26.2981509,39.4862047 25.4862047,40.2981509 24.4520056,40.6475663 L9.3649025,45.7449085 C8.05683176,46.1868545 6.63816293,45.4847216 6.19621697,44.1766509 C6.02084576,43.6575875 6.02084576,43.0952864 6.19621697,42.576223 L6.47339005,41.7558467 C6.73855762,40.9710043 7.58975892,40.5497245 8.37460136,40.8148921 C9.1148996,41.0650099 9.53173245,41.8365278 9.35413067,42.5819488 L23.4917489,37.8054004 C23.6394916,37.7554839 23.7554839,37.6394916 23.8054004,37.4917489 L28.5819488,23.3541307 C27.8365278,23.5317324 27.0650099,23.1148996 26.8148921,22.3746014 Z" id="Rectangle-4-Copy" transform="translate(18.970563, 32.970563) rotate(45.000000) translate(-18.970563, -32.970563) "></path>
                <path d="M26.8148921,15.2317442 C26.5497245,14.4469018 26.9710043,13.5957005 27.7558467,13.3305329 L28.576223,13.0533598 C29.8842937,12.6114139 31.3029626,13.3135467 31.7449085,14.6216175 C31.9202797,15.1406809 31.9202797,15.702982 31.7449085,16.2220454 L26.6475663,31.3091485 C26.2981509,32.3433475 25.4862047,33.1552938 24.4520056,33.5047092 L9.3649025,38.6020514 C8.05683176,39.0439973 6.63816293,38.3418645 6.19621697,37.0337937 C6.02084576,36.5147304 6.02084576,35.9524292 6.19621697,35.4333659 L6.47339005,34.6129896 C6.73855762,33.8281471 7.58975892,33.4068674 8.37460136,33.672035 C9.1148996,33.9221528 9.53173245,34.6936707 9.35413067,35.4390917 L23.4917489,30.6625433 C23.6394916,30.6126268 23.7554839,30.4966345 23.8054004,30.3488917 L28.5819488,16.2112735 C27.8365278,16.3888753 27.0650099,15.9720425 26.8148921,15.2317442 Z" id="Rectangle-4-Copy" transform="translate(18.970563, 25.827706) rotate(45.000000) translate(-18.970563, -25.827706) "></path>
                <path d="M14.4493766,14.1357251 C14.3016339,14.1856416 14.1856416,14.3016339 14.1357251,14.4493766 L9.36175147,28.579374 L23.4917489,23.8054004 C23.6394916,23.7554839 23.7554839,23.6394916 23.8054004,23.4917489 L28.579374,9.36175147 L14.4493766,14.1357251 Z M13.4891199,11.2935592 L28.576223,6.19621697 C29.8842937,5.75427102 31.3029626,6.45640389 31.7449085,7.76447462 C31.9202797,8.283538 31.9202797,8.84583912 31.7449085,9.3649025 L26.6475663,24.4520056 C26.2981509,25.4862047 25.4862047,26.2981509 24.4520056,26.6475663 L9.3649025,31.7449085 C8.05683176,32.1868545 6.63816293,31.4847216 6.19621697,30.1766509 C6.02084576,29.6575875 6.02084576,29.0952864 6.19621697,28.576223 L11.2935592,13.4891199 C11.6429746,12.4549208 12.4549208,11.6429746 13.4891199,11.2935592 Z" id="Rectangle-4" transform="translate(18.970563, 18.970563) rotate(45.000000) translate(-18.970563, -18.970563) "></path>
            </g>
        </g>
    </g>
</svg>