<?xml version="1.0" encoding="UTF-8" standalone="no"?>
<svg width="16px" height="16px" viewBox="0 0 16 16" version="1.1" xmlns="http://www.w3.org/2000/svg" xmlns:xlink="http://www.w3.org/1999/xlink">
    <!-- Generator: Sketch 49.2 (51160) - http://www.bohemiancoding.com/sketch -->
    <title>icon_rizhi</title>
    <desc>Created with Sketch.</desc>
    <defs></defs>
    <g id="icon_rizhi" stroke="none" stroke-width="1" fill="none" fill-rule="evenodd">
        <circle id="Oval" fill="#262626" cx="8" cy="8" r="8"></circle>
        <path d="M10.5,4.64285714 L11.5,4.64285714 C12.0522847,4.64285714 12.5,5.09057239 12.5,5.64285714 L12.5,11.5 C12.5,12.0522847 12.0522847,12.5 11.5,12.5 L4.5,12.5 C3.94771525,12.5 3.5,12.0522847 3.5,11.5 L3.5,5.64285714 C3.5,5.09057239 3.94771525,4.64285714 4.5,4.64285714 L5.5,4.64285714 L5.5,4.28571429 C5.5,4.00957191 5.72385763,3.78571429 6,3.78571429 C6.27614237,3.78571429 6.5,4.00957191 6.5,4.28571429 L6.5,4.64285714 L9.5,4.64285714 L9.5,4.28571429 C9.5,4.00957191 9.72385763,3.78571429 10,3.78571429 C10.2761424,3.78571429 10.5,4.00957191 10.5,4.28571429 L10.5,4.64285714 Z M6.63999987,8.21428571 L9.57142857,8.21428571 C9.84757095,8.21428571 10.0714286,7.99042809 10.0714286,7.71428571 C10.0714286,7.43814334 9.84757095,7.21428571 9.57142857,7.21428571 L6.63999987,7.21428571 C6.36385749,7.21428571 6.13999987,7.43814334 6.13999987,7.71428571 C6.13999987,7.99042809 6.36385749,8.21428571 6.63999987,8.21428571 Z M6.63999987,10.5 L9.57142857,10.5 C9.84757095,10.5 10.0714286,10.2761424 10.0714286,10 C10.0714286,9.72385763 9.84757095,9.5 9.57142857,9.5 L6.63999987,9.5 C6.36385749,9.5 6.13999987,9.72385763 6.13999987,10 C6.13999987,10.2761424 6.36385749,10.5 6.63999987,10.5 Z" id="Combined-Shape" fill="#F9CC74" fill-rule="nonzero"></path>
    </g>
</svg>