<?xml version="1.0" encoding="UTF-8" standalone="no"?>
<svg width="16px" height="16px" viewBox="0 0 16 16" version="1.1" xmlns="http://www.w3.org/2000/svg" xmlns:xlink="http://www.w3.org/1999/xlink">
    <!-- Generator: Sketch 49.2 (51160) - http://www.bohemiancoding.com/sketch -->
    <title>icon_xztd</title>
    <desc>Created with Sketch.</desc>
    <defs></defs>
    <g id="icon_xztd" stroke="none" stroke-width="1" fill="none" fill-rule="evenodd">
        <circle id="Oval" fill="#262626" cx="8" cy="8" r="8"></circle>
        <g id="Group" transform="translate(3.000000, 3.500000)" fill="#F9CC74" fill-rule="nonzero">
            <g id="Group-2">
                <path d="M8.29206781,3.625 L6.44562139,1.77855358 C6.25035925,1.58329144 6.25035925,1.26670895 6.44562139,1.0714468 C6.64088354,0.876184654 6.95746603,0.876184654 7.15272818,1.0714468 L9.80437861,3.72309723 C9.99704183,3.91576045 9.99997885,4.22721131 9.81098324,4.42347363 L7.21015745,7.12429872 C7.0186124,7.32320851 6.70208621,7.3291788 6.50317642,7.13763374 C6.30426664,6.94608868 6.29829635,6.62956249 6.4898414,6.43065271 L8.22863898,4.625 L0.625,4.625 C0.348857625,4.625 0.125,4.40114237 0.125,4.125 C0.125,3.84885763 0.348857625,3.625 0.625,3.625 L8.29206781,3.625 Z" id="Combined-Shape"></path>
            </g>
            <path d="M0.625,7.125 C0.348857625,7.125 0.125,6.90114237 0.125,6.625 C0.125,6.34885763 0.348857625,6.125 0.625,6.125 L4.375,6.125 C4.65114237,6.125 4.875,6.34885763 4.875,6.625 C4.875,6.90114237 4.65114237,7.125 4.375,7.125 L0.625,7.125 Z" id="Line-3"></path>
        </g>
    </g>
</svg>