<?xml version="1.0" encoding="UTF-8" standalone="no"?>
<svg width="40px" height="40px" viewBox="0 0 40 40" version="1.1" xmlns="http://www.w3.org/2000/svg" xmlns:xlink="http://www.w3.org/1999/xlink">
    <!-- Generator: Sketch 49.2 (51160) - http://www.bohemiancoding.com/sketch -->
    <title>icon_zhanghu2</title>
    <desc>Created with Sketch.</desc>
    <defs></defs>
    <g id="icon_zhanghu2" stroke="none" stroke-width="1" fill="none" fill-rule="evenodd">
        <g id="icon_项目" fill="#F9CC74" fill-rule="nonzero">
            <g id="Group-2" transform="translate(5.714286, 4.285714)">
                <path d="M14.2857143,18.6428571 C8.72341788,18.6428571 4.21428571,14.133725 4.21428571,8.57142857 C4.21428571,3.00913216 8.72341788,-1.5 14.2857143,-1.5 C19.8480107,-1.5 24.3571429,3.00913216 24.3571429,8.57142857 C24.3571429,14.133725 19.8480107,18.6428571 14.2857143,18.6428571 Z M14.2857143,15.6428571 C18.1911564,15.6428571 21.3571429,12.4768707 21.3571429,8.57142857 C21.3571429,4.66598641 18.1911564,1.5 14.2857143,1.5 C10.3802721,1.5 7.21428571,4.66598641 7.21428571,8.57142857 C7.21428571,12.4768707 10.3802721,15.6428571 14.2857143,15.6428571 Z" id="Oval"></path>
                <path d="M30.0714286,31.4285714 C30.0714286,32.2569986 29.3998557,32.9285714 28.5714286,32.9285714 C27.7430014,32.9285714 27.0714286,32.2569986 27.0714286,31.4285714 C27.0714286,24.3672164 21.3470693,18.6428571 14.2857143,18.6428571 C12.3530911,18.6428571 10.4842993,19.0709556 8.78084616,19.8849205 C8.03336905,20.2420891 7.1378767,19.9256817 6.78070801,19.1782045 C6.42353932,18.4307274 6.73994681,17.5352351 7.48742392,17.1780664 C9.59263174,16.1721302 11.9030841,15.6428571 14.2857143,15.6428571 C23.0039236,15.6428571 30.0714286,22.7103622 30.0714286,31.4285714 Z" id="Oval-2"></path>
                <path d="M2.87628157,20.5192027 C3.44887503,19.9205139 4.39838688,19.8993595 4.99707564,20.471953 C5.59576439,21.0445464 5.61691881,21.9940583 5.04432534,22.592747 C2.78301233,24.9571168 1.5,28.0900525 1.5,31.4285714 C1.5,32.2569986 0.828427125,32.9285714 0,32.9285714 C-0.828427125,32.9285714 -1.5,32.2569986 -1.5,31.4285714 C-1.5,27.3097399 0.0862168368,23.4364214 2.87628157,20.5192027 Z" id="Path"></path>
            </g>
        </g>
    </g>
</svg>