<?xml version="1.0" encoding="UTF-8" standalone="no"?>
<svg width="40px" height="40px" viewBox="0 0 40 40" version="1.1" xmlns="http://www.w3.org/2000/svg" xmlns:xlink="http://www.w3.org/1999/xlink">
    <!-- Generator: Sketch 49.2 (51160) - http://www.bohemiancoding.com/sketch -->
    <title>icon_tongji2</title>
    <desc>Created with Sketch.</desc>
    <defs></defs>
    <g id="icon_tongji2" stroke="none" stroke-width="1" fill="none" fill-rule="evenodd">
        <g id="icon_项目" fill="#F9CC74" fill-rule="nonzero">
            <g id="Group-2" transform="translate(5.000000, 3.571429)">
                <path d="M32.9285714,15.0310559 C32.9285714,15.859483 32.2569986,16.5310559 31.4285714,16.5310559 L16.3975155,16.5310559 C15.5690884,16.5310559 14.8975155,15.859483 14.8975155,15.0310559 L14.8975155,7.17204074e-14 C14.8975155,-0.828427125 15.5690884,-1.5 16.3975155,-1.5 C25.5273656,-1.5 32.9285714,5.90120583 32.9285714,15.0310559 Z M17.8975155,1.5822017 L17.8975155,13.5310559 L29.8463697,13.5310559 C29.1543738,7.2564619 24.1721095,2.27419761 17.8975155,1.5822017 Z" id="Oval-2"></path>
                <path d="M11.8702052,0.168599887 C12.6835104,0.0110367749 13.4705547,0.542620778 13.6281178,1.35592599 C13.7856809,2.1692312 13.2540969,2.95627548 12.4407917,3.11383859 C6.12940878,4.3365544 1.5,9.88937067 1.5,16.3975155 C1.5,23.8705114 7.55806008,29.9285714 15.0310559,29.9285714 C21.5392978,29.9285714 27.0921718,25.2990266 28.314783,18.9875206 C28.4723302,18.1742123 29.259364,17.6426129 30.0726723,17.8001601 C30.8859806,17.9577072 31.4175801,18.7447411 31.2600329,19.5580494 C29.7654073,27.2737794 22.9828079,32.9285714 15.0310559,32.9285714 C5.90120583,32.9285714 -1.5,25.5273656 -1.5,16.3975155 C-1.5,8.44588209 4.15462589,1.66335324 11.8702052,0.168599887 Z" id="Oval"></path>
            </g>
        </g>
    </g>
</svg>