<?xml version="1.0" encoding="UTF-8" standalone="no"?>
<svg width="16px" height="16px" viewBox="0 0 16 16" version="1.1" xmlns="http://www.w3.org/2000/svg" xmlns:xlink="http://www.w3.org/1999/xlink">
    <!-- Generator: Sketch 49.2 (51160) - http://www.bohemiancoding.com/sketch -->
    <title>icon_jbxx</title>
    <desc>Created with Sketch.</desc>
    <defs></defs>
    <g id="icon_jbxx" stroke="none" stroke-width="1" fill="none" fill-rule="evenodd">
        <circle id="Oval-3" fill="#262626" cx="8" cy="8" r="8"></circle>
        <g id="Group" transform="translate(4.000000, 3.500000)" fill="#F9CC74" fill-rule="nonzero">
            <path d="M0.5,2 C0.223857625,2 0,1.77614237 0,1.5 C0,1.22385763 0.223857625,1 0.5,1 L7.5,1 C7.77614237,1 8,1.22385763 8,1.5 C8,1.77614237 7.77614237,2 7.5,2 L0.5,2 Z" id="Line"></path>
            <path d="M0.5,5 C0.223857625,5 0,4.77614237 0,4.5 C0,4.22385763 0.223857625,4 0.5,4 L7.5,4 C7.77614237,4 8,4.22385763 8,4.5 C8,4.77614237 7.77614237,5 7.5,5 L0.5,5 Z" id="Line"></path>
            <path d="M0.5,8 C0.223857625,8 0,7.77614237 0,7.5 C0,7.22385763 0.223857625,7 0.5,7 L7.5,7 C7.77614237,7 8,7.22385763 8,7.5 C8,7.77614237 7.77614237,8 7.5,8 L0.5,8 Z" id="Line"></path>
        </g>
    </g>
</svg>