<?xml version="1.0" encoding="UTF-8" standalone="no"?>
<svg width="22px" height="22px" viewBox="0 0 22 22" version="1.1" xmlns="http://www.w3.org/2000/svg" xmlns:xlink="http://www.w3.org/1999/xlink">
    <!-- Generator: Sketch 49.2 (51160) - http://www.bohemiancoding.com/sketch -->
    <title>icon_sousuo</title>
    <desc>Created with Sketch.</desc>
    <defs></defs>
    <g id="icon_sousuo" stroke="none" stroke-width="1" fill="none" fill-rule="evenodd">
        <g id="Group" transform="translate(2.000000, 2.000000)" fill="#999999" fill-rule="nonzero">
            <path d="M14.1363366,15.1969968 C13.8434434,14.9041035 13.8434434,14.4292298 14.1363366,14.1363366 C14.4292298,13.8434434 14.9041035,13.8434434 15.1969968,14.1363366 L18.0254239,16.9647637 C18.3183171,17.2576569 18.3183171,17.7325307 18.0254239,18.0254239 C17.7325307,18.3183171 17.2576569,18.3183171 16.9647637,18.0254239 L14.1363366,15.1969968 Z" id="Line"></path>
            <path d="M7.5,15.75 C2.94365081,15.75 -0.75,12.0563492 -0.75,7.5 C-0.75,2.94365081 2.94365081,-0.75 7.5,-0.75 C12.0563492,-0.75 15.75,2.94365081 15.75,7.5 C15.75,12.0563492 12.0563492,15.75 7.5,15.75 Z M7.5,14.25 C11.2279221,14.25 14.25,11.2279221 14.25,7.5 C14.25,3.77207794 11.2279221,0.75 7.5,0.75 C3.77207794,0.75 0.75,3.77207794 0.75,7.5 C0.75,11.2279221 3.77207794,14.25 7.5,14.25 Z" id="Oval"></path>
        </g>
    </g>
</svg>