<?xml version="1.0" encoding="UTF-8" standalone="no"?>
<svg width="40px" height="40px" viewBox="0 0 40 40" version="1.1" xmlns="http://www.w3.org/2000/svg" xmlns:xlink="http://www.w3.org/1999/xlink">
    <!-- Generator: Sketch 49.2 (51160) - http://www.bohemiancoding.com/sketch -->
    <title>icon_gaishu2</title>
    <desc>Created with Sketch.</desc>
    <defs></defs>
    <g id="icon_gaishu2" stroke="none" stroke-width="1" fill="none" fill-rule="evenodd">
        <g id="icon_项目" fill="#F9CC74" fill-rule="nonzero">
            <g id="Group-4" transform="translate(4.285714, 6.428571)">
                <path d="M1.5,1.5 L1.5,24.9387755 C1.5,25.2149179 1.72385763,25.4387755 2,25.4387755 L29.4285714,25.4387755 C29.7047138,25.4387755 29.9285714,25.2149179 29.9285714,24.9387755 L29.9285714,4.99319728 C29.9285714,4.7170549 29.7047138,4.49319728 29.4285714,4.49319728 L13.4693878,4.49319728 C12.9039237,4.49319728 12.3865119,4.1751996 12.1311094,3.67070072 L11.1709884,1.77416552 C11.0858542,1.60599923 10.9133836,1.5 10.7248956,1.5 L1.5,1.5 Z M14.3912773,1.49319728 L29.4285714,1.49319728 C31.3615681,1.49319728 32.9285714,3.06020065 32.9285714,4.99319728 L32.9285714,24.9387755 C32.9285714,26.8717721 31.3615681,28.4387755 29.4285714,28.4387755 L2,28.4387755 C0.0670033756,28.4387755 -1.5,26.8717721 -1.5,24.9387755 L-1.5,1 C-1.5,-0.380711875 -0.380711875,-1.5 1,-1.5 L10.7248956,-1.5 C12.0443117,-1.5 13.2516059,-0.758005424 13.8475452,0.419158635 L14.3912773,1.49319728 Z" id="Combined-Shape"></path>
                <g id="Group-2" transform="translate(5.238095, 8.979592)">
                    <path d="M6.73469388,3.74489796 C5.90626675,3.74489796 5.23469388,3.07332508 5.23469388,2.24489796 C5.23469388,1.41647083 5.90626675,0.744897959 6.73469388,0.744897959 L20.2040816,0.744897959 C21.0325088,0.744897959 21.7040816,1.41647083 21.7040816,2.24489796 C21.7040816,3.07332508 21.0325088,3.74489796 20.2040816,3.74489796 L6.73469388,3.74489796 Z" id="Line"></path>
                    <path d="M0.74829932,3.74489796 C-0.080127805,3.74489796 -0.75170068,3.07332508 -0.75170068,2.24489796 C-0.75170068,1.41647083 -0.080127805,0.744897959 0.74829932,0.744897959 L2.24489796,0.744897959 C3.07332508,0.744897959 3.74489796,1.41647083 3.74489796,2.24489796 C3.74489796,3.07332508 3.07332508,3.74489796 2.24489796,3.74489796 L0.74829932,3.74489796 Z" id="Line-Copy"></path>
                </g>
                <g id="Group-2" transform="translate(5.238095, 16.462585)">
                    <path d="M6.73469388,3.74489796 C5.90626675,3.74489796 5.23469388,3.07332508 5.23469388,2.24489796 C5.23469388,1.41647083 5.90626675,0.744897959 6.73469388,0.744897959 L20.2040816,0.744897959 C21.0325088,0.744897959 21.7040816,1.41647083 21.7040816,2.24489796 C21.7040816,3.07332508 21.0325088,3.74489796 20.2040816,3.74489796 L6.73469388,3.74489796 Z" id="Line"></path>
                    <path d="M0.74829932,3.74489796 C-0.080127805,3.74489796 -0.75170068,3.07332508 -0.75170068,2.24489796 C-0.75170068,1.41647083 -0.080127805,0.744897959 0.74829932,0.744897959 L2.24489796,0.744897959 C3.07332508,0.744897959 3.74489796,1.41647083 3.74489796,2.24489796 C3.74489796,3.07332508 3.07332508,3.74489796 2.24489796,3.74489796 L0.74829932,3.74489796 Z" id="Line-Copy"></path>
                </g>
            </g>
        </g>
    </g>
</svg>