<?xml version="1.0" encoding="UTF-8" standalone="no"?>
<svg width="40px" height="40px" viewBox="0 0 40 40" version="1.1" xmlns="http://www.w3.org/2000/svg" xmlns:xlink="http://www.w3.org/1999/xlink">
    <!-- Generator: Sketch 49.2 (51160) - http://www.bohemiancoding.com/sketch -->
    <title>icon_shebei1</title>
    <desc>Created with Sketch.</desc>
    <defs></defs>
    <g id="icon_shebei1" stroke="none" stroke-width="1" fill="none" fill-rule="evenodd">
        <g id="icon_项目" fill-rule="nonzero">
            <g id="Group-5" transform="translate(3.571429, 6.428571)">
                <path d="M2,1.5 C1.72385763,1.5 1.5,1.72385763 1.5,2 L1.5,22.010989 C1.5,22.2871314 1.72385763,22.510989 2,22.510989 L30.8571429,22.510989 C31.1332852,22.510989 31.3571429,22.2871314 31.3571429,22.010989 L31.3571429,2 C31.3571429,1.72385763 31.1332852,1.5 30.8571429,1.5 L2,1.5 Z M2,-1.5 L30.8571429,-1.5 C32.7901395,-1.5 34.3571429,0.0670033756 34.3571429,2 L34.3571429,22.010989 C34.3571429,23.9439856 32.7901395,25.510989 30.8571429,25.510989 L2,25.510989 C0.0670033756,25.510989 -1.5,23.9439856 -1.5,22.010989 L-1.5,2 C-1.5,0.0670033756 0.0670033756,-1.5 2,-1.5 Z" id="Rectangle-3" fill="#666666"></path>
                <path d="M14.9285714,24.010989 C14.9285714,23.1825619 15.6001443,22.510989 16.4285714,22.510989 C17.2569986,22.510989 17.9285714,23.1825619 17.9285714,24.010989 L17.9285714,27.8021978 C17.9285714,28.6306249 17.2569986,29.3021978 16.4285714,29.3021978 C15.6001443,29.3021978 14.9285714,28.6306249 14.9285714,27.8021978 L14.9285714,24.010989 Z" id="Line-2" fill="#666666"></path>
                <path d="M10.1098901,29.3021978 C9.28146299,29.3021978 8.60989011,28.6306249 8.60989011,27.8021978 C8.60989011,26.9737707 9.28146299,26.3021978 10.1098901,26.3021978 L22.7472527,26.3021978 C23.5756799,26.3021978 24.2472527,26.9737707 24.2472527,27.8021978 C24.2472527,28.6306249 23.5756799,29.3021978 22.7472527,29.3021978 L10.1098901,29.3021978 Z" id="Line" fill="#666666"></path>
                <path d="M24.6276924,6.37677306 C25.202303,5.78002006 26.1518808,5.76207012 26.7486338,6.33668074 C27.3453868,6.91129136 27.3633368,7.86086919 26.7887261,8.45762219 L16.700459,18.9346363 C16.1048106,19.5532379 15.1123962,19.5464412 14.5252763,18.9197393 L7.11961988,11.0148135 C6.55323667,10.4102462 6.58419094,9.46100332 7.18875818,8.89462011 C7.79332543,8.32823689 8.74256833,8.35919117 9.30895155,8.96375841 L15.634859,15.7161415 L24.6276924,6.37677306 Z" id="Path-5" fill="#F9CC74"></path>
            </g>
        </g>
    </g>
</svg>