<?xml version="1.0" encoding="UTF-8" standalone="no"?>
<svg width="16px" height="16px" viewBox="0 0 16 16" version="1.1" xmlns="http://www.w3.org/2000/svg" xmlns:xlink="http://www.w3.org/1999/xlink">
    <!-- Generator: Sketch 49.2 (51160) - http://www.bohemiancoding.com/sketch -->
    <title>icon_ckqb</title>
    <desc>Created with Sketch.</desc>
    <defs></defs>
    <g id="icon_ckqb" stroke="none" stroke-width="1" fill="none" fill-rule="evenodd">
        <path d="M7.35533453,11.6888469 C7.549608,11.8850928 7.54800908,12.2016712 7.35176324,12.3959447 C7.15551739,12.5902182 6.83893894,12.5886193 6.64466547,12.3923734 L2.64466547,8.35176324 C2.45108545,8.15621788 2.45188144,7.84101178 2.64644661,7.64644661 L6.64644661,3.64644661 C6.84170876,3.45118446 7.15829124,3.45118446 7.35355339,3.64644661 C7.54881554,3.84170876 7.54881554,4.15829124 7.35355339,4.35355339 L3.70532562,8.00178116 L7.35533453,11.6888469 Z" id="Line-2" fill="#BBBBBB" fill-rule="nonzero" transform="translate(5.000000, 8.020305) scale(-1, 1) translate(-5.000000, -8.020305) "></path>
        <path d="M10.7053256,8.00178116 L14.3553345,11.6888469 C14.549608,11.8850928 14.5480091,12.2016712 14.3517632,12.3959447 C14.1555174,12.5902182 13.8389389,12.5886193 13.6446655,12.3923734 L9.64466547,8.35176324 C9.45108545,8.15621788 9.45188144,7.84101178 9.64644661,7.64644661 L13.6464466,3.64644661 C13.8417088,3.45118446 14.1582912,3.45118446 14.3535534,3.64644661 C14.5488155,3.84170876 14.5488155,4.15829124 14.3535534,4.35355339 L10.7053256,8.00178116 Z" id="Line-2" fill="#BBBBBB" fill-rule="nonzero" transform="translate(12.000000, 8.020305) scale(-1, 1) translate(-12.000000, -8.020305) "></path>
    </g>
</svg>